# xmcd
#
# Track frame offsets:
#	150
#	16763
#	36312
#	49367
#	67409
#	79753
#	96133
#	114580
#	129731
#	144834
#	162464
#
# Disc length: 2593 seconds
#
# Revision: 1
# Processed by: cddbd v1.5.2PL0 Copyright (c) Steve Scherf et al.
# Submitted via: audiograbber 1.83.01
#
DISCID=9a0a1f0b
DTITLE=Alan Farrington - The Best Of Electric Blues
DYEAR=1999
DGENRE=Blues
TTITLE0=Caldonia
TTITLE1=Got My Mojo Working
TTITLE2=Walking To My Baby
TTITLE3=Everyday I Have The Blues
TTITLE4=Guilty
TTITLE5=Flip Flop Fly
TTITLE6=Boom Boom
TTITLE7=Love Me Darling
TTITLE8=Demetra Blues
TTITLE9=Baby Please Don't Go
TTITLE10=Onavlis Funk
EXTD=
EXTT0=
EXTT1=
EXTT2=
EXTT3=
EXTT4=
EXTT5=
EXTT6=
EXTT7=
EXTT8=
EXTT9=
EXTT10=
PLAYORDER=
